<svg xmlns="http://www.w3.org/2000/svg" xmlns:xlink="http://www.w3.org/1999/xlink" width="50" zoomAndPan="magnify" viewBox="0 0 37.5 37.499999" height="50" preserveAspectRatio="xMidYMid meet" version="1.0"><defs><clipPath id="ee646496d3"><path d="M 2.542969 9 L 19 9 L 19 37.007812 L 2.542969 37.007812 Z M 2.542969 9 " clip-rule="nonzero"/></clipPath><clipPath id="62ee859bad"><path d="M 2.542969 0.132812 L 34.792969 0.132812 L 34.792969 19 L 2.542969 19 Z M 2.542969 0.132812 " clip-rule="nonzero"/></clipPath><clipPath id="6ad9fa322c"><path d="M 18 9 L 34.792969 9 L 34.792969 37.007812 L 18 37.007812 Z M 18 9 " clip-rule="nonzero"/></clipPath></defs><g clip-path="url(#ee646496d3)"><path fill="#000000" d="M 18.667969 37.585938 L 18.714844 37.609375 L 18.667969 37.636719 L 2.628906 28.289062 L 2.574219 28.257812 L 2.574219 9.507812 L 2.628906 9.476562 L 18.667969 18.824219 L 18.714844 18.796875 L 18.71875 18.804688 L 18.667969 18.832031 Z M 18.667969 37.585938 " fill-opacity="1" fill-rule="nonzero"/></g><g clip-path="url(#62ee859bad)"><path fill="#cccccc" d="M 34.714844 9.476562 L 18.714844 18.796875 L 18.667969 18.824219 L 2.628906 9.476562 L 18.667969 0.132812 Z M 34.714844 9.476562 " fill-opacity="1" fill-rule="nonzero"/></g><g clip-path="url(#6ad9fa322c)"><path fill="#676767" d="M 34.765625 9.507812 L 34.765625 28.257812 L 34.714844 28.289062 L 18.714844 37.609375 L 18.667969 37.585938 L 18.667969 18.832031 L 18.71875 18.804688 L 34.722656 9.480469 Z M 34.765625 9.507812 " fill-opacity="1" fill-rule="nonzero"/></g></svg>