<svg xmlns="http://www.w3.org/2000/svg" xmlns:xlink="http://www.w3.org/1999/xlink" width="50" zoomAndPan="magnify" viewBox="0 0 37.5 37.499999" height="50" preserveAspectRatio="xMidYMid meet" version="1.0"><defs><clipPath id="069944c58c"><path d="M 2.046875 0 L 35.796875 0 L 35.796875 17 L 2.046875 17 Z M 2.046875 0 " clip-rule="nonzero"/></clipPath><clipPath id="7528407eda"><path d="M 18 8 L 35.796875 8 L 35.796875 37.007812 L 18 37.007812 Z M 18 8 " clip-rule="nonzero"/></clipPath><clipPath id="2f5d2f8d29"><path d="M 2.046875 8 L 19 8 L 19 37.007812 L 2.046875 37.007812 Z M 2.046875 8 " clip-rule="nonzero"/></clipPath><clipPath id="b6810ef1d4"><path d="M 2.046875 0 L 35.796875 0 L 35.796875 37.007812 L 2.046875 37.007812 Z M 2.046875 0 " clip-rule="nonzero"/></clipPath></defs><g clip-path="url(#069944c58c)"><path fill="#e6e6e6" d="M 18.921875 0.40625 L 2.480469 8.542969 L 18.921875 16.675781 L 35.359375 8.542969 Z M 18.921875 0.40625 " fill-opacity="1" fill-rule="nonzero"/></g><g clip-path="url(#7528407eda)"><path fill="#cccccc" d="M 18.921875 16.675781 L 18.921875 37.011719 L 35.359375 28.878906 L 35.359375 8.542969 Z M 18.921875 16.675781 " fill-opacity="1" fill-rule="nonzero"/></g><g clip-path="url(#2f5d2f8d29)"><path fill="#676767" d="M 18.921875 16.675781 L 18.921875 37.011719 L 2.480469 28.878906 L 2.480469 8.542969 Z M 18.921875 16.675781 " fill-opacity="1" fill-rule="nonzero"/></g><g clip-path="url(#b6810ef1d4)"><path stroke-linecap="butt" transform="matrix(0.822012, 0, 0, 0.813449, -5.739894, -1.514642)" fill="none" stroke-linejoin="miter" d="M 30.001729 2.375823 L 10.0003 12.373761 L 10.0003 37.373407 L 30.001729 47.376147 L 49.998406 37.373407 L 49.998406 12.373761 Z M 30.001729 2.375823 " stroke="#4d4d4d" stroke-width="1" stroke-opacity="1" stroke-miterlimit="4"/></g></svg>