<svg xmlns="http://www.w3.org/2000/svg" xmlns:xlink="http://www.w3.org/1999/xlink" width="100" zoomAndPan="magnify" viewBox="0 0 75 74.999997" height="100" preserveAspectRatio="xMidYMid meet" version="1.0"><defs><g/></defs><path fill="#424242" d="M 63.4375 47.679688 C 64.65625 44.636719 65.363281 41.285156 65.464844 38.160156 L 67.679688 38.160156 C 67.578125 41.808594 66.804688 45.386719 65.472656 48.699219 Z M 48.734375 65.332031 L 47.917969 63.265625 C 54.449219 60.5 59.742188 55.390625 62.753906 48.996094 L 64.789062 49.878906 C 61.539062 56.8125 55.808594 62.347656 48.734375 65.332031 Z M 36.957031 67.726562 L 36.957031 65.511719 C 40.082031 65.421875 43.226562 64.859375 45.96875 63.886719 L 46.6875 65.949219 C 43.6875 67.019531 40.082031 67.636719 36.957031 67.726562 Z M 35.914062 8.75 C 32.789062 8.84375 30.214844 9.40625 27.46875 10.375 L 26.558594 8.308594 C 29.558594 7.242188 32.789062 6.625 35.914062 6.535156 Z M 11.375 25.265625 L 9.339844 24.382812 C 12.585938 17.449219 18.316406 11.914062 25.394531 8.933594 L 26.207031 10.996094 C 19.675781 13.761719 14.386719 18.871094 11.375 25.265625 Z M 8.660156 36.597656 L 6.445312 36.597656 C 6.550781 32.949219 7.320312 29.214844 8.652344 25.902344 L 10.6875 26.863281 C 9.472656 29.90625 8.765625 33.472656 8.660156 36.597656 Z M 37.507812 0 C 16.792969 0 0 16.792969 0 37.511719 C 0 58.226562 16.792969 75.023438 37.507812 75.023438 C 58.226562 75.023438 75.023438 58.226562 75.023438 37.511719 C 75.023438 16.792969 58.226562 0 37.507812 0 " fill-opacity="1" fill-rule="nonzero"/><g fill="#ffffff" fill-opacity="1"><g transform="translate(12.41688, 41.399558)"><g><path d="M 3.234375 -4.34375 L 3.234375 -1.640625 L 7.96875 -1.640625 L 7.96875 0 L 1.28125 0 L 1.28125 -9.890625 L 7.859375 -9.890625 L 7.859375 -8.25 L 3.234375 -8.25 L 3.234375 -5.9375 L 7.28125 -5.9375 L 7.28125 -4.34375 Z M 3.234375 -4.34375 "/></g></g></g><g fill="#ffffff" fill-opacity="1"><g transform="translate(20.91855, 41.399558)"><g><path d="M 1.28125 0 L 1.28125 -9.890625 L 5.265625 -9.890625 C 6.285156 -9.890625 7.054688 -9.65625 7.578125 -9.1875 C 8.097656 -8.71875 8.359375 -8.066406 8.359375 -7.234375 C 8.359375 -6.628906 8.203125 -6.132812 7.890625 -5.75 C 7.585938 -5.375 7.132812 -5.082031 6.53125 -4.875 L 6.53125 -4.734375 C 6.84375 -4.597656 7.09375 -4.394531 7.28125 -4.125 C 7.476562 -3.863281 7.664062 -3.472656 7.84375 -2.953125 L 8.828125 0 L 6.8125 0 L 5.84375 -2.953125 C 5.75 -3.253906 5.640625 -3.484375 5.515625 -3.640625 C 5.390625 -3.804688 5.226562 -3.925781 5.03125 -4 C 4.84375 -4.082031 4.597656 -4.125 4.296875 -4.125 L 3.234375 -4.125 L 3.234375 0 Z M 5.015625 -5.671875 C 5.960938 -5.671875 6.4375 -6.113281 6.4375 -7 C 6.4375 -7.894531 5.960938 -8.34375 5.015625 -8.34375 L 3.234375 -8.34375 L 3.234375 -5.671875 Z M 5.015625 -5.671875 "/></g></g></g><g fill="#ffffff" fill-opacity="1"><g transform="translate(30.164202, 41.399558)"><g><path d="M 5.40625 0.140625 C 4.5 0.140625 3.695312 -0.046875 3 -0.421875 C 2.300781 -0.804688 1.753906 -1.378906 1.359375 -2.140625 C 0.972656 -2.898438 0.78125 -3.835938 0.78125 -4.953125 C 0.78125 -6.066406 0.972656 -7.003906 1.359375 -7.765625 C 1.753906 -8.523438 2.300781 -9.09375 3 -9.46875 C 3.695312 -9.84375 4.5 -10.03125 5.40625 -10.03125 C 6.351562 -10.03125 7.160156 -9.84375 7.828125 -9.46875 C 8.492188 -9.101562 8.96875 -8.539062 9.25 -7.78125 L 7.828125 -6.90625 L 7.65625 -6.90625 C 7.445312 -7.425781 7.160156 -7.796875 6.796875 -8.015625 C 6.429688 -8.234375 5.96875 -8.34375 5.40625 -8.34375 C 4.582031 -8.34375 3.941406 -8.070312 3.484375 -7.53125 C 3.023438 -6.988281 2.796875 -6.128906 2.796875 -4.953125 C 2.796875 -3.773438 3.023438 -2.910156 3.484375 -2.359375 C 3.941406 -1.816406 4.582031 -1.546875 5.40625 -1.546875 C 6.6875 -1.546875 7.472656 -2.171875 7.765625 -3.421875 L 7.9375 -3.421875 L 9.375 -2.671875 C 9.101562 -1.734375 8.640625 -1.03125 7.984375 -0.5625 C 7.335938 -0.09375 6.476562 0.140625 5.40625 0.140625 Z M 5.40625 0.140625 "/></g></g></g><g fill="#ffffff" fill-opacity="1"><g transform="translate(39.863005, 41.399558)"><g><path d="M 4.734375 -3.984375 L 0.59375 -3.984375 L 0.59375 -5.625 L 4.734375 -5.625 Z M 4.734375 -3.984375 "/></g></g></g><g fill="#ffffff" fill-opacity="1"><g transform="translate(45.199376, 41.399558)"><g><path d="M 0.484375 -0.78125 C 0.484375 -1.332031 0.539062 -1.796875 0.65625 -2.171875 C 0.78125 -2.546875 0.976562 -2.882812 1.25 -3.1875 C 1.519531 -3.5 1.898438 -3.832031 2.390625 -4.1875 L 3.71875 -5.140625 C 4.070312 -5.398438 4.347656 -5.625 4.546875 -5.8125 C 4.753906 -6 4.90625 -6.195312 5 -6.40625 C 5.101562 -6.613281 5.15625 -6.851562 5.15625 -7.125 C 5.15625 -7.519531 5.035156 -7.828125 4.796875 -8.046875 C 4.554688 -8.265625 4.191406 -8.375 3.703125 -8.375 C 3.234375 -8.375 2.816406 -8.257812 2.453125 -8.03125 C 2.085938 -7.8125 1.785156 -7.507812 1.546875 -7.125 L 1.421875 -7.09375 L 0.34375 -8.296875 C 0.6875 -8.816406 1.140625 -9.234375 1.703125 -9.546875 C 2.273438 -9.867188 2.96875 -10.03125 3.78125 -10.03125 C 4.519531 -10.03125 5.132812 -9.910156 5.625 -9.671875 C 6.125 -9.429688 6.492188 -9.097656 6.734375 -8.671875 C 6.984375 -8.253906 7.109375 -7.769531 7.109375 -7.21875 C 7.109375 -6.75 7.007812 -6.320312 6.8125 -5.9375 C 6.613281 -5.550781 6.335938 -5.191406 5.984375 -4.859375 C 5.640625 -4.523438 5.195312 -4.171875 4.65625 -3.796875 L 3.484375 -2.984375 C 3.140625 -2.722656 2.894531 -2.492188 2.75 -2.296875 C 2.613281 -2.109375 2.546875 -1.890625 2.546875 -1.640625 L 7.015625 -1.640625 L 7.015625 0 L 0.484375 0 Z M 0.484375 -0.78125 "/></g></g></g><g fill="#ffffff" fill-opacity="1"><g transform="translate(52.916485, 41.399558)"><g><path d="M 4.828125 0.140625 C 4.023438 0.140625 3.320312 -0.0351562 2.71875 -0.390625 C 2.125 -0.753906 1.660156 -1.3125 1.328125 -2.0625 C 0.992188 -2.820312 0.828125 -3.785156 0.828125 -4.953125 C 0.828125 -6.109375 0.992188 -7.0625 1.328125 -7.8125 C 1.660156 -8.570312 2.125 -9.128906 2.71875 -9.484375 C 3.320312 -9.847656 4.023438 -10.03125 4.828125 -10.03125 C 5.640625 -10.03125 6.34375 -9.847656 6.9375 -9.484375 C 7.539062 -9.128906 8.007812 -8.570312 8.34375 -7.8125 C 8.675781 -7.0625 8.84375 -6.109375 8.84375 -4.953125 C 8.84375 -3.785156 8.675781 -2.820312 8.34375 -2.0625 C 8.007812 -1.3125 7.539062 -0.753906 6.9375 -0.390625 C 6.34375 -0.0351562 5.640625 0.140625 4.828125 0.140625 Z M 4.828125 -1.515625 C 5.273438 -1.515625 5.644531 -1.617188 5.9375 -1.828125 C 6.238281 -2.046875 6.46875 -2.40625 6.625 -2.90625 C 6.789062 -3.414062 6.875 -4.097656 6.875 -4.953125 C 6.875 -5.796875 6.789062 -6.46875 6.625 -6.96875 C 6.46875 -7.476562 6.238281 -7.835938 5.9375 -8.046875 C 5.644531 -8.265625 5.273438 -8.375 4.828125 -8.375 C 4.390625 -8.375 4.019531 -8.265625 3.71875 -8.046875 C 3.425781 -7.835938 3.195312 -7.476562 3.03125 -6.96875 C 2.875 -6.46875 2.796875 -5.796875 2.796875 -4.953125 C 2.796875 -4.097656 2.875 -3.414062 3.03125 -2.90625 C 3.195312 -2.40625 3.425781 -2.046875 3.71875 -1.828125 C 4.019531 -1.617188 4.390625 -1.515625 4.828125 -1.515625 Z M 4.828125 -1.515625 "/></g></g></g></svg>