<svg xmlns="http://www.w3.org/2000/svg" xmlns:xlink="http://www.w3.org/1999/xlink" width="100" zoomAndPan="magnify" viewBox="0 0 75 74.999997" height="100" preserveAspectRatio="xMidYMid meet" version="1.0"><defs><g/></defs><path fill="#ffdc00" d="M 63.4375 47.679688 C 64.65625 44.636719 65.363281 41.285156 65.464844 38.160156 L 67.679688 38.160156 C 67.578125 41.808594 66.804688 45.386719 65.472656 48.699219 Z M 48.734375 65.332031 L 47.917969 63.265625 C 54.449219 60.5 59.742188 55.390625 62.753906 48.996094 L 64.789062 49.878906 C 61.539062 56.8125 55.808594 62.347656 48.734375 65.332031 Z M 36.957031 67.726562 L 36.957031 65.511719 C 40.082031 65.421875 43.226562 64.859375 45.96875 63.886719 L 46.6875 65.949219 C 43.6875 67.019531 40.082031 67.636719 36.957031 67.726562 Z M 35.914062 8.75 C 32.789062 8.84375 30.214844 9.40625 27.46875 10.375 L 26.558594 8.308594 C 29.558594 7.242188 32.789062 6.625 35.914062 6.535156 Z M 11.375 25.265625 L 9.339844 24.382812 C 12.585938 17.449219 18.316406 11.914062 25.394531 8.933594 L 26.207031 10.996094 C 19.675781 13.761719 14.386719 18.871094 11.375 25.265625 Z M 8.660156 36.597656 L 6.445312 36.597656 C 6.550781 32.949219 7.320312 29.214844 8.652344 25.902344 L 10.6875 26.863281 C 9.472656 29.90625 8.765625 33.472656 8.660156 36.597656 Z M 37.507812 0 C 16.792969 0 0 16.792969 0 37.511719 C 0 58.226562 16.792969 75.023438 37.507812 75.023438 C 58.226562 75.023438 75.023438 58.226562 75.023438 37.511719 C 75.023438 16.792969 58.226562 0 37.507812 0 " fill-opacity="1" fill-rule="nonzero"/><g fill="#424242" fill-opacity="1"><g transform="translate(23.988281, 42.651016)"><g><path d="M 3.1875 0 L 1.28125 0 L 1.28125 -9.890625 L 3.53125 -9.890625 L 7.5 -3.515625 L 7.671875 -3.546875 L 7.671875 -9.890625 L 9.5625 -9.890625 L 9.5625 0 L 7.546875 0 L 3.34375 -6.8125 L 3.1875 -6.78125 Z M 3.1875 0 "/></g></g></g><g fill="#424242" fill-opacity="1"><g transform="translate(34.830104, 42.651016)"><g><path d="M 7.5625 -9.890625 L 7.5625 -8.25 L 3.234375 -8.25 L 3.234375 -5.640625 L 7.15625 -5.640625 L 7.15625 -4.015625 L 3.234375 -4.015625 L 3.234375 0 L 1.28125 0 L 1.28125 -9.890625 Z M 7.5625 -9.890625 "/></g></g></g><g fill="#424242" fill-opacity="1"><g transform="translate(42.824511, 42.651016)"><g><path d="M 7.9375 -9.890625 L 7.9375 -8.25 L 5.078125 -8.25 L 5.078125 0 L 3.125 0 L 3.125 -8.25 L 0.265625 -8.25 L 0.265625 -9.890625 Z M 7.9375 -9.890625 "/></g></g></g></svg>