<svg xmlns="http://www.w3.org/2000/svg" xmlns:xlink="http://www.w3.org/1999/xlink" width="50" zoomAndPan="magnify" viewBox="0 0 37.5 37.499999" height="50" preserveAspectRatio="xMidYMid meet" version="1.0"><defs><clipPath id="049fd90c2a"><path d="M 1 6.144531 L 36.601562 6.144531 L 36.601562 14 L 1 14 Z M 1 6.144531 " clip-rule="nonzero"/></clipPath><clipPath id="ed81596291"><path d="M 1 15 L 36.601562 15 L 36.601562 23 L 1 23 Z M 1 15 " clip-rule="nonzero"/></clipPath><clipPath id="07d9ed891d"><path d="M 1 24 L 36.601562 24 L 36.601562 31.644531 L 1 31.644531 Z M 1 24 " clip-rule="nonzero"/></clipPath></defs><g clip-path="url(#049fd90c2a)"><path fill="#000000" d="M 2.523438 6.703125 C 7.105469 6.601562 15.058594 6.34375 19.011719 6.273438 C 22.964844 6.199219 33.648438 6.144531 35.722656 6.921875 C 36.589844 7.246094 36.320312 12.839844 36.039062 12.925781 C 34.519531 13.402344 27.046875 13.027344 19.03125 13.121094 C 11.390625 13.210938 3.644531 14.148438 2.386719 13.539062 C 1.125 12.929688 1.242188 12.074219 1.21875 9.707031 C 1.195312 7.335938 0.601562 6.746094 2.523438 6.703125 Z M 2.523438 6.703125 " fill-opacity="1" fill-rule="nonzero"/></g><g clip-path="url(#ed81596291)"><path fill="#545454" d="M 1.78125 16.03125 C 1.78125 16.03125 15.035156 15.339844 19.703125 15.265625 C 24.371094 15.191406 34.03125 15.039062 35.082031 15.402344 C 36.132812 15.769531 36.113281 15.832031 36.304688 17.636719 C 36.496094 19.4375 36.59375 21.230469 35.417969 21.308594 C 31.414062 21.566406 26.011719 21.558594 20.765625 21.703125 C 14.84375 21.867188 6.179688 21.933594 3.710938 22.300781 C 1.503906 22.625 1.75 21.542969 1.648438 20.796875 C 1.546875 20.050781 1.152344 16.796875 1.78125 16.03125 Z M 1.78125 16.03125 " fill-opacity="1" fill-rule="nonzero"/></g><g clip-path="url(#07d9ed891d)"><path fill="#a6a6a6" d="M 3.542969 25.230469 C 6.996094 25.0625 16.535156 24.546875 20.453125 24.601562 C 24.367188 24.65625 33.167969 24.578125 34.558594 24.570312 C 36.027344 24.558594 33.167969 24.578125 34.558594 24.570312 C 36.027344 24.558594 33.167969 24.578125 34.558594 24.570312 C 36.027344 24.558594 36.109375 25.0625 36.027344 27.152344 C 35.945312 29.238281 35.96875 30.199219 35.667969 30.738281 C 35.265625 31.453125 32.457031 31.171875 29.433594 31.199219 C 26.035156 31.226562 18.960938 31.644531 15.984375 31.535156 C 13.007812 31.425781 4.710938 31.523438 3.253906 31.320312 C 1.796875 31.121094 4.710938 31.523438 3.253906 31.320312 C 1.796875 31.121094 1.988281 29.941406 1.957031 28.488281 C 1.921875 27.03125 1.535156 25.324219 3.542969 25.230469 Z M 3.542969 25.230469 " fill-opacity="1" fill-rule="nonzero"/></g></svg>