<svg xmlns="http://www.w3.org/2000/svg" xmlns:xlink="http://www.w3.org/1999/xlink" width="50" zoomAndPan="magnify" viewBox="0 0 37.5 37.499999" height="50" preserveAspectRatio="xMidYMid meet" version="1.0"><defs><clipPath id="b168778720"><path d="M 0.308594 8 L 35 8 L 35 15 L 0.308594 15 Z M 0.308594 8 " clip-rule="nonzero"/></clipPath></defs><path fill="#424242" d="M 5.824219 36.695312 C 3.242188 35.390625 0.308594 36.609375 1.234375 32.496094 C 1.808594 29.925781 11.328125 30.976562 13.59375 30.910156 C 15.410156 30.855469 18.816406 31.175781 21.167969 31.175781 C 23.105469 31.175781 33.375 31.042969 34.226562 31.59375 C 36.058594 32.78125 35.175781 31.722656 35.175781 35.070312 C 35.175781 37.484375 26.347656 36.398438 23.960938 36.398438 C 18.175781 36.398438 11.921875 35.636719 6.320312 36.671875 C 6.320312 36.671875 5.890625 36.726562 5.824219 36.695312 " fill-opacity="1" fill-rule="evenodd"/><path fill="#000000" d="M 5.824219 29.257812 C 5.738281 29.210938 3.550781 28.734375 2.3125 28.132812 C 1.753906 27.863281 0.328125 25.066406 2.703125 24.074219 C 3.722656 23.652344 12.589844 23.460938 14.503906 23.285156 C 17.199219 23.042969 21.234375 23.570312 24.058594 22.960938 C 25.511719 22.648438 34.796875 23.832031 34.785156 24.089844 C 34.5625 29.222656 37.054688 29.226562 27.640625 29.226562 C 26.085938 29.226562 5.882812 29.289062 5.824219 29.257812 " fill-opacity="1" fill-rule="evenodd"/><path fill="#424242" d="M 1.429688 17.628906 C 1.601562 16.332031 11.296875 16.121094 12.941406 16.121094 C 15.375 16.121094 34.976562 15.746094 35.378906 17.53125 C 35.480469 17.980469 35.613281 21.972656 34.296875 21.878906 C 34.25 21.875 31.71875 22.144531 31.078125 22.144531 C 26.589844 22.144531 23.863281 21.984375 19.5 21.691406 C 16.96875 21.523438 7.789062 22.273438 3.3125 21.820312 C 0.511719 21.535156 1.082031 20.191406 1.429688 17.628906 " fill-opacity="1" fill-rule="evenodd"/><g clip-path="url(#b168778720)"><path fill="#000000" d="M 1.1875 13.65625 C 0.875 13.449219 0.976562 9.886719 1.1875 9.503906 C 2.332031 7.402344 21.496094 8.804688 24.519531 8.589844 C 25.675781 8.503906 34.492188 8.019531 34.492188 9.125 C 34.492188 10.246094 35.3125 14.441406 34.6875 14.441406 C 27.492188 14.441406 20.84375 14.253906 13.324219 14.519531 C 11.242188 14.59375 7.671875 14.570312 5.605469 14.382812 C 4.097656 14.242188 2.441406 14.496094 1.1875 13.65625 " fill-opacity="1" fill-rule="evenodd"/></g><path fill="#424242" d="M 2.945312 6.945312 C 1.125 6.839844 1.457031 4.726562 1.363281 2.707031 C 1.238281 0.015625 34.785156 1.25 34.785156 2.042969 C 34.785156 3.515625 35.753906 6.433594 34.296875 6.382812 C 34.28125 6.382812 31.421875 6.734375 30.28125 6.734375 C 22.058594 6.734375 10.746094 7.386719 2.945312 6.945312 " fill-opacity="1" fill-rule="evenodd"/></svg>