<svg xmlns="http://www.w3.org/2000/svg" xmlns:xlink="http://www.w3.org/1999/xlink" width="100" zoomAndPan="magnify" viewBox="0 0 75 74.999997" height="100" preserveAspectRatio="xMidYMid meet" version="1.0"><defs><clipPath id="22565077e9"><path d="M 51 40 L 73.867188 40 L 73.867188 52 L 51 52 Z M 51 40 " clip-rule="nonzero"/></clipPath><clipPath id="9395ea5577"><path d="M 1.117188 18 L 71 18 L 71 72.898438 L 1.117188 72.898438 Z M 1.117188 18 " clip-rule="nonzero"/></clipPath></defs><g clip-path="url(#22565077e9)"><path fill="#000000" d="M 51.84375 40.410156 L 73.863281 40.410156 L 73.863281 51.144531 L 51.84375 51.144531 Z M 57.625 43.066406 C 59.121094 43.066406 60.335938 44.28125 60.335938 45.777344 C 60.335938 47.277344 59.121094 48.492188 57.625 48.492188 C 56.128906 48.492188 54.914062 47.277344 54.914062 45.777344 C 54.914062 44.28125 56.128906 43.066406 57.625 43.066406 Z M 57.625 43.066406 " fill-opacity="1" fill-rule="evenodd"/></g><path fill="#000000" d="M 61.84375 17.511719 L 54.65625 4.8125 C 52.152344 0.394531 46.492188 -1.171875 42.082031 1.335938 L 13.59375 17.511719 Z M 61.84375 17.511719 " fill-opacity="1" fill-rule="evenodd"/><g clip-path="url(#9395ea5577)"><path fill="#424242" d="M 34.179688 62.335938 C 34.179688 63.835938 32.96875 65.050781 31.472656 65.050781 C 29.972656 65.050781 28.761719 63.835938 28.761719 62.335938 C 28.761719 61.828125 28.902344 61.351562 29.144531 60.941406 L 21.597656 53.464844 L 2.414062 53.464844 L 2.414062 52.164062 L 22.128906 52.164062 L 22.320312 52.351562 L 30.054688 60.019531 C 30.46875 59.769531 30.953125 59.621094 31.472656 59.621094 C 32.96875 59.621094 34.179688 60.835938 34.179688 62.335938 Z M 32.949219 43.066406 C 34.445312 43.066406 35.660156 44.28125 35.660156 45.78125 C 35.660156 47.277344 34.445312 48.492188 32.949219 48.492188 C 31.675781 48.492188 30.609375 47.613281 30.316406 46.429688 L 2.414062 46.429688 L 2.414062 45.128906 L 30.316406 45.128906 C 30.609375 43.945312 31.675781 43.066406 32.949219 43.066406 Z M 70.097656 39.109375 L 70.097656 25.984375 C 70.097656 22.039062 66.875 18.8125 62.933594 18.8125 L 8.277344 18.8125 C 4.339844 18.8125 1.113281 22.039062 1.113281 25.984375 L 1.113281 65.574219 C 1.113281 69.519531 4.339844 72.746094 8.277344 72.746094 L 62.933594 72.746094 C 66.875 72.746094 70.097656 69.519531 70.097656 65.574219 L 70.097656 52.449219 L 50.542969 52.449219 L 50.542969 39.109375 Z M 31.472656 26.507812 C 32.96875 26.507812 34.179688 27.722656 34.179688 29.222656 C 34.179688 30.722656 32.96875 31.9375 31.472656 31.9375 C 30.953125 31.9375 30.46875 31.789062 30.054688 31.539062 L 22.320312 39.207031 L 22.128906 39.394531 L 2.414062 39.394531 L 2.414062 38.09375 L 21.597656 38.09375 L 29.144531 30.617188 C 28.902344 30.207031 28.761719 29.730469 28.761719 29.222656 C 28.761719 27.722656 29.972656 26.507812 31.472656 26.507812 Z M 31.472656 26.507812 " fill-opacity="1" fill-rule="evenodd"/></g></svg>