<svg xmlns="http://www.w3.org/2000/svg" xmlns:xlink="http://www.w3.org/1999/xlink" width="100" zoomAndPan="magnify" viewBox="0 0 75 74.999997" height="100" preserveAspectRatio="xMidYMid meet" version="1.0"><defs><clipPath id="a27af3571d"><path d="M 5.203125 1 L 69.703125 1 L 69.703125 75 L 5.203125 75 Z M 5.203125 1 " clip-rule="nonzero"/></clipPath></defs><g clip-path="url(#a27af3571d)"><path fill="#424242" d="M 24.785156 31.039062 L 29.785156 31.039062 C 31.007812 31.039062 32.179688 30.554688 33.042969 29.6875 L 41.355469 21.367188 C 42.953125 21.851562 44.710938 21.96875 46.539062 21.585938 C 50.695312 20.714844 53.96875 17.261719 54.605469 13.054688 C 55.667969 6.046875 49.726562 0.105469 42.726562 1.175781 C 38.617188 1.804688 35.21875 4.964844 34.277344 9.019531 C 33.753906 11.269531 33.992188 13.414062 34.746094 15.292969 L 32.847656 17.199219 L 32.847656 20.660156 L 29.390625 20.660156 L 29.390625 24.121094 L 27.085938 24.121094 L 24.785156 26.425781 Z M 46.667969 6.242188 C 48.257812 6.242188 49.546875 7.53125 49.546875 9.125 C 49.546875 10.71875 48.257812 12.007812 46.667969 12.007812 C 45.078125 12.007812 43.789062 10.71875 43.789062 9.125 C 43.789062 7.53125 45.078125 6.242188 46.667969 6.242188 Z M 67.398438 41.632812 L 67.398438 40.269531 C 67.398438 37.484375 65.417969 35.152344 62.792969 34.617188 L 62.792969 26.425781 C 62.792969 23.246094 60.207031 20.660156 57.035156 20.660156 L 54.667969 20.660156 C 53.886719 21.535156 53 22.3125 52.019531 22.964844 L 57.035156 22.964844 C 58.9375 22.964844 60.488281 24.519531 60.488281 26.425781 L 60.488281 34.5 L 13.265625 34.5 C 10.089844 34.5 7.507812 31.914062 7.507812 28.734375 C 7.507812 25.554688 10.089844 22.964844 13.265625 22.964844 L 23.351562 22.964844 L 25.65625 20.660156 L 13.265625 20.660156 C 8.820312 20.660156 5.203125 24.28125 5.203125 28.734375 L 5.203125 42.316406 C 5.90625 43.5 7.183594 44.304688 8.660156 44.304688 L 18.449219 44.304688 L 22.59375 41.191406 C 22.894531 40.964844 23.257812 40.84375 23.632812 40.84375 L 37.46875 40.84375 C 37.992188 40.148438 38.820312 39.691406 39.757812 39.691406 C 41.34375 39.691406 42.636719 40.984375 42.636719 42.574219 C 42.636719 44.164062 41.34375 45.457031 39.757812 45.457031 C 38.820312 45.457031 37.992188 45 37.46875 44.304688 L 24.207031 44.304688 L 20.0625 47.421875 C 19.761719 47.644531 19.398438 47.765625 19.023438 47.765625 L 8.660156 47.765625 C 7.410156 47.765625 6.238281 47.453125 5.203125 46.914062 L 5.203125 52.363281 C 5.726562 53.070312 6.5625 53.53125 7.507812 53.53125 L 32.859375 53.53125 C 33.386719 52.835938 34.210938 52.378906 35.148438 52.378906 C 36.738281 52.378906 38.027344 53.671875 38.027344 55.261719 C 38.027344 56.855469 36.738281 58.148438 35.148438 58.148438 C 34.210938 58.148438 33.386719 57.691406 32.859375 56.992188 L 25.101562 56.992188 L 32.300781 62.761719 L 42.074219 62.761719 C 42.601562 62.066406 43.425781 61.605469 44.363281 61.605469 C 45.953125 61.605469 47.242188 62.902344 47.242188 64.492188 C 47.242188 66.082031 45.953125 67.375 44.363281 67.375 C 43.425781 67.375 42.601562 66.917969 42.074219 66.222656 L 31.695312 66.222656 C 31.300781 66.222656 30.921875 66.085938 30.613281 65.839844 L 19.570312 56.992188 L 7.507812 56.992188 C 6.691406 56.992188 5.917969 56.832031 5.203125 56.546875 L 5.203125 61.589844 C 5.726562 62.296875 6.5625 62.761719 7.507812 62.761719 L 15.582031 62.761719 C 16.109375 62.066406 16.9375 61.605469 17.871094 61.605469 C 19.460938 61.605469 20.753906 62.902344 20.753906 64.492188 C 20.753906 66.082031 19.460938 67.375 17.871094 67.375 C 16.9375 67.375 16.109375 66.917969 15.582031 66.222656 L 7.507812 66.222656 C 6.695312 66.222656 5.917969 66.0625 5.203125 65.78125 L 5.203125 66.796875 C 5.203125 71.25 8.820312 74.871094 13.265625 74.871094 L 61.640625 74.871094 C 64.816406 74.871094 67.398438 72.285156 67.398438 69.105469 L 67.398438 60.390625 C 68.769531 59.589844 69.703125 58.117188 69.703125 56.417969 L 69.703125 44.882812 C 69.703125 43.378906 68.738281 42.113281 67.398438 41.632812 Z M 67.398438 56.417969 C 67.398438 57.6875 66.367188 58.722656 65.097656 58.722656 L 52.425781 58.722656 C 49.886719 58.722656 47.820312 56.65625 47.820312 54.109375 C 47.820312 51.566406 49.886719 49.496094 52.425781 49.496094 L 65.097656 49.496094 C 65.933594 49.496094 66.722656 49.269531 67.398438 48.875 Z M 67.398438 56.417969 " fill-opacity="1" fill-rule="nonzero"/></g></svg>