<svg xmlns="http://www.w3.org/2000/svg" xmlns:xlink="http://www.w3.org/1999/xlink" width="100" zoomAndPan="magnify" viewBox="0 0 75 74.999997" height="100" preserveAspectRatio="xMidYMid meet" version="1.0"><defs><clipPath id="fdfd3b25f9"><path d="M 0 11 L 71.863281 11 L 71.863281 74.222656 L 0 74.222656 Z M 0 11 " clip-rule="nonzero"/></clipPath></defs><path fill="#424242" d="M 25.445312 64.261719 C 27.113281 64.261719 28.464844 65.621094 28.464844 67.285156 C 28.464844 68.953125 27.113281 70.308594 25.445312 70.308594 C 23.78125 70.308594 22.425781 68.953125 22.425781 67.285156 C 22.425781 65.621094 23.78125 64.261719 25.445312 64.261719 " fill-opacity="1" fill-rule="nonzero"/><path fill="#424242" d="M 51.648438 58.382812 C 53.3125 58.382812 54.667969 59.738281 54.667969 61.40625 C 54.667969 63.074219 53.3125 64.429688 51.648438 64.429688 C 49.984375 64.429688 48.628906 63.074219 48.628906 61.410156 C 48.628906 61.410156 48.628906 61.40625 48.628906 61.40625 C 48.628906 61.40625 48.628906 61.402344 48.628906 61.402344 C 48.628906 59.738281 49.984375 58.382812 51.648438 58.382812 " fill-opacity="1" fill-rule="nonzero"/><path fill="#424242" d="M 47.480469 23.363281 C 49.148438 23.363281 50.503906 24.722656 50.503906 26.386719 C 50.503906 28.054688 49.148438 29.410156 47.480469 29.410156 C 45.816406 29.410156 44.460938 28.054688 44.460938 26.386719 C 44.460938 24.722656 45.816406 23.363281 47.480469 23.363281 " fill-opacity="1" fill-rule="nonzero"/><path fill="#424242" d="M 63.230469 42.613281 C 63.230469 39.640625 60.816406 37.226562 57.851562 37.226562 C 54.886719 37.226562 52.472656 39.640625 52.472656 42.613281 C 52.472656 45.582031 54.886719 47.996094 57.851562 47.996094 C 60.816406 47.996094 63.230469 45.582031 63.230469 42.613281 Z M 75 33.355469 L 75 51.867188 L 54.414062 51.867188 C 51.222656 51.867188 48.628906 49.269531 48.628906 46.074219 L 48.628906 39.148438 C 48.628906 35.953125 51.222656 33.355469 54.414062 33.355469 L 75 33.355469 " fill-opacity="1" fill-rule="nonzero"/><path fill="#424242" d="M 57.851562 38.5 C 60.117188 38.5 61.957031 40.34375 61.957031 42.613281 C 61.957031 44.878906 60.117188 46.722656 57.851562 46.722656 C 55.585938 46.722656 53.746094 44.878906 53.746094 42.613281 C 53.746094 40.34375 55.585938 38.5 57.851562 38.5 " fill-opacity="1" fill-rule="nonzero"/><g clip-path="url(#fdfd3b25f9)"><path fill="#424242" d="M 71.839844 53.140625 L 71.839844 67.539062 C 71.839844 71.226562 68.84375 74.222656 65.164062 74.222656 L 6.675781 74.222656 C 2.992188 74.222656 0 71.226562 0 67.539062 L 0 50.964844 L 16.488281 50.964844 L 24.8125 59.296875 L 24.8125 63.039062 C 22.746094 63.347656 21.15625 65.132812 21.15625 67.285156 C 21.15625 69.65625 23.082031 71.582031 25.445312 71.582031 C 27.8125 71.582031 29.738281 69.65625 29.738281 67.285156 C 29.738281 65.132812 28.148438 63.347656 26.082031 63.039062 L 26.082031 59.03125 C 26.082031 58.863281 26.015625 58.703125 25.894531 58.582031 L 18.285156 50.964844 L 27.949219 50.964844 L 38.828125 61.855469 C 38.949219 61.976562 39.109375 62.042969 39.277344 62.042969 L 47.402344 62.042969 C 47.710938 64.109375 49.496094 65.703125 51.648438 65.703125 C 54.015625 65.703125 55.9375 63.777344 55.9375 61.40625 C 55.9375 59.039062 54.015625 57.109375 51.648438 57.109375 C 49.496094 57.109375 47.710938 58.703125 47.402344 60.769531 L 39.542969 60.769531 L 28.664062 49.878906 C 28.542969 49.757812 28.382812 49.691406 28.214844 49.691406 L 0 49.691406 L 0 43.25 L 17.148438 43.25 C 17.316406 43.25 17.476562 43.179688 17.597656 43.0625 L 33.613281 27.023438 L 43.238281 27.023438 C 43.546875 29.09375 45.332031 30.683594 47.480469 30.683594 C 49.847656 30.683594 51.773438 28.757812 51.773438 26.386719 C 51.773438 24.019531 49.847656 22.09375 47.480469 22.09375 C 45.332031 22.09375 43.546875 23.683594 43.238281 25.75 L 33.351562 25.75 C 33.179688 25.75 33.019531 25.820312 32.902344 25.9375 L 16.882812 41.976562 L 0 41.976562 L 0 17.683594 C 0 13.996094 2.992188 11 6.675781 11 L 65.164062 11 C 68.84375 11 71.839844 13.996094 71.839844 17.683594 L 71.839844 32.082031 L 54.414062 32.082031 C 50.523438 32.082031 47.355469 35.253906 47.355469 39.148438 L 47.355469 46.074219 C 47.355469 49.96875 50.523438 53.140625 54.414062 53.140625 L 71.839844 53.140625 " fill-opacity="1" fill-rule="nonzero"/></g><path fill="#424242" d="M 61.957031 6.972656 L 61.957031 9.726562 L 6.675781 9.726562 C 6.320312 9.726562 5.976562 9.75 5.632812 9.792969 L 54.015625 0.410156 C 55.976562 0.0273438 57.988281 0.539062 59.53125 1.816406 C 61.074219 3.089844 61.957031 4.96875 61.957031 6.972656 " fill-opacity="1" fill-rule="nonzero"/></svg>